<svg xmlns="http://www.w3.org/2000/svg" xmlns:xlink="http://www.w3.org/1999/xlink" viewBox="0 0 926 391">
  <defs>
    <style>
      .cls-1 {
        clip-path: url(#clip-logo-webedia);
      }

      .cls-2 {
        fill: #989898;
      }
    </style>
    <clipPath id="clip-logo-webedia">
      <rect width="926" height="391"/>
    </clipPath>
  </defs>
  <g id="logo-webedia" class="cls-1">
    <g id="Group_61" data-name="Group 61" transform="translate(44.171 117.018)">
      <path id="Path_40" data-name="Path 40" class="cls-2" d="M156.3,2.8,121.731,83.954,87.165,2.8H84.16L48.091,83.954,15.029,2.8H0L46.588,114.011h3.006L85.663,34.36l34.566,79.651h3.006L171.325,2.8Z" transform="translate(0 39.28)"/>
      <path id="Path_41" data-name="Path 41" class="cls-2" d="M110.288,82.151l12.023,6.011A93.669,93.669,0,0,1,108.785,106.2c-4.509,4.509-10.52,9.017-18.034,10.52-6.011,3.006-13.526,3.006-22.543,3.006-18.034,0-31.56-6.011-42.08-18.034S11.1,76.14,11.1,61.111A57.717,57.717,0,0,1,24.626,23.54C35.146,10.014,50.174,2.5,68.208,2.5c19.537,0,34.566,7.514,45.086,21.04a62.321,62.321,0,0,1,12.023,37.571H26.129c0,13.526,4.509,24.046,12.023,31.56a41.962,41.962,0,0,0,30.057,12.023c6.011,0,10.52-1.5,16.531-3.006a29.059,29.059,0,0,0,13.526-7.514c3.006,0,7.514-6.011,12.023-12.023m0-30.057q-2.254-11.271-9.017-18.034c-3.006-4.509-9.017-7.514-15.029-10.52a41.6,41.6,0,0,0-19.537-4.509c-10.52,0-19.537,3.006-28.554,10.52q-9.017,6.763-13.526,22.543Z" transform="translate(155.717 35.071)"/>
      <path id="Path_42" data-name="Path 42" class="cls-2" d="M19.5,153.291V0H33.026V61.617C39.037,54.1,45.048,48.091,52.563,45.086s15.029-6.011,24.046-6.011c15.029,0,28.554,6.011,40.577,16.531,10.52,12.023,16.531,25.549,16.531,42.08s-6.011,30.057-16.531,40.577c-10.52,12.023-24.046,16.531-40.577,16.531-9.017,0-16.531-1.5-24.046-6.011s-13.526-9.017-19.537-18.034v21.04H19.5Zm57.108-10.52a42.41,42.41,0,0,0,22.543-6.011c6.011-4.509,12.023-9.017,16.531-16.531a42.41,42.41,0,0,0,6.011-22.543,42.41,42.41,0,0,0-6.011-22.543A43.658,43.658,0,0,0,99.151,58.611C93.14,54.1,85.626,52.6,78.111,52.6a42.41,42.41,0,0,0-22.543,6.011c-9.017,4.509-13.526,9.017-18.034,16.531-3.006,6.011-6.011,13.526-6.011,22.543,0,13.526,4.509,24.046,12.023,31.56,9.017,9.017,19.537,13.526,33.063,13.526" transform="translate(273.556)"/>
      <path id="Path_43" data-name="Path 43" class="cls-2" d="M141.717,68.826H53.049c1.5,7.514,4.509,13.526,10.52,18.034s12.023,7.514,21.04,7.514c10.52,0,19.537-3.006,27.051-10.52l24.046,10.52c-6.011,9.017-13.526,15.029-21.04,18.034-7.514,4.509-18.034,6.011-28.554,6.011-18.034,0-31.56-6.011-42.08-16.531S27.5,77.843,27.5,61.311s6.011-31.56,16.531-42.08S68.077,2.7,84.608,2.7c18.034,0,31.56,6.011,42.08,16.531S143.22,44.78,143.22,62.814ZM113.163,46.283c-1.5-6.011-6.011-10.52-10.52-15.029-6.011-4.509-12.023-6.011-19.537-6.011s-15.029,1.5-21.04,6.011a42.9,42.9,0,0,0-10.52,15.029Z" transform="translate(385.785 37.877)"/>
      <path id="Path_44" data-name="Path 44" class="cls-2" d="M122.265,0h27.051V153.291H122.265V141.268c-6.011,4.509-10.52,9.017-16.531,10.52-6.011,3.006-12.023,3.006-18.034,3.006-15.029,0-27.051-6.011-37.571-16.531S35.1,112.714,35.1,96.183s4.509-31.56,15.029-42.08S72.671,37.571,86.2,37.571c6.011,0,13.526,1.5,18.034,4.509A57.514,57.514,0,0,1,120.763,54.1V0ZM93.711,66.126c-9.017,0-15.029,3.006-21.04,9.017s-9.017,13.526-9.017,22.543,3.006,18.034,9.017,24.046,12.023,9.017,21.04,9.017,16.531-3.006,21.04-9.017c6.011-6.011,9.017-13.526,9.017-24.046,0-9.017-3.006-18.034-9.017-24.046-4.509-4.509-12.023-7.514-21.04-7.514" transform="translate(492.402)"/>
      <rect id="Rectangle_51" data-name="Rectangle 51" class="cls-2" width="27.051" height="111.211" transform="translate(652.238 42.08)"/>
      <path id="Path_45" data-name="Path 45" class="cls-2" d="M132.665,4.2h27.051V115.414H132.665V103.391c-6.011,4.509-10.52,9.017-16.531,10.52-6.011,3.006-12.023,3.006-18.034,3.006-15.029,0-27.051-6.011-37.571-16.531S45.5,74.837,45.5,58.306s4.509-31.56,15.029-42.08C71.048,7.209,83.071,2.7,98.1,2.7c6.011,0,13.526,1.5,18.034,4.509a57.514,57.514,0,0,1,16.531,12.023ZM102.608,28.249c-9.017,0-15.029,3.006-21.04,9.017s-9.017,13.526-9.017,24.046c0,9.017,3.006,18.034,9.017,24.046a29.672,29.672,0,0,0,21.04,9.017c9.017,0,16.531-3.006,21.04-9.017,6.011-6.011,9.017-13.526,9.017-24.046,0-9.017-3.006-18.034-9.017-24.046-4.509-6.011-12.023-9.017-21.04-9.017" transform="translate(638.298 37.877)"/>
      <path id="Path_46" data-name="Path 46" class="cls-2" d="M70.131,8c4.509,0,9.017,1.5,12.023,6.011q4.509,4.509,4.509,13.526A17.065,17.065,0,0,1,82.154,39.56a17.065,17.065,0,0,1-12.023,4.509c-4.509,0-9.017-1.5-12.023-6.011Q53.6,33.549,53.6,24.531a17.065,17.065,0,0,1,4.509-12.023A17.065,17.065,0,0,1,70.131,8" transform="translate(751.929 112.228)"/>
      <rect id="Rectangle_52" data-name="Rectangle 52" class="cls-2" width="27.051" height="31.56" transform="translate(652.238)"/>
    </g>
  </g>
</svg>
